HIERARCHY
ROOT Hips
{
  OFFSET -187.679 86.5976 -156.378
  CHANNELS 6 Xposition Yposition Zposition Zrotation Xrotation Yrotation
  JOINT LeftUpLeg
  {
    OFFSET 8.64259 1.95398 -2.38835
    CHANNELS 3 Zrotation Xrotation Yrotation
    JOINT LeftLeg
    {
      OFFSET 43.7702 0 0
      CHANNELS 3 Zrotation Xrotation Yrotation
      JOINT LeftFoot
      {
        OFFSET 40.6238 0 0
        CHANNELS 3 Zrotation Xrotation Yrotation
        JOINT LeftToeBase
        {
          OFFSET 12.7242 0 0
          CHANNELS 3 Zrotation Xrotation Yrotation
          End Site
          {
            OFFSET 0 0 0
          }
        }
      }
    }
  }
  JOINT RightUpLeg
  {
    OFFSET -8.2249 1.95398 -2.59336
    CHANNELS 3 Zrotation Xrotation Yrotation
    JOINT RightLeg
    {
      OFFSET 43.5653 0 0
      CHANNELS 3 Zrotation Xrotation Yrotation
      JOINT RightFoot
      {
        OFFSET 40.6238 0 0
        CHANNELS 3 Zrotation Xrotation Yrotation
        JOINT RightToeBase
        {
          OFFSET 12.7242 0 0
          CHANNELS 3 Zrotation Xrotation Yrotation
          End Site
          {
            OFFSET 0 0 0
          }
        }
      }
    }
  }
  JOINT Spine
  {
    OFFSET 0.165834 0.87714 6.61349
    CHANNELS 3 Zrotation Xrotation Yrotation
    JOINT Spine1
    {
      OFFSET 7.38963 1.71661e-005 0
      CHANNELS 3 Zrotation Xrotation Yrotation
      JOINT Spine2
      {
        OFFSET 11.9445 1.14441e-005 0
        CHANNELS 3 Zrotation Xrotation Yrotation
        JOINT Spine3
        {
          OFFSET 14.7254 4.19617e-005 0
          CHANNELS 3 Zrotation Xrotation Yrotation
          JOINT Spine4
          {
            OFFSET 10.9679 0 0
            CHANNELS 3 Zrotation Xrotation Yrotation
            JOINT RightShoulder
            {
              OFFSET 2.46616 -1.6653 3.69651
              CHANNELS 3 Zrotation Xrotation Yrotation
              JOINT RightArm
              {
                OFFSET 13.0012 0 0
                CHANNELS 3 Zrotation Xrotation Yrotation
                JOINT RightForeArm
                {
                  OFFSET 28.7848 1.52588e-005 0
                  CHANNELS 3 Zrotation Xrotation Yrotation
                  JOINT RightHand
                  {
                    OFFSET 26.5688 1.52588e-005 0
                    CHANNELS 3 Zrotation Xrotation Yrotation
                    End Site
                    {
                      OFFSET 0 0 0
                    }
                  }
                }
              }
            }
            JOINT LeftShoulder
            {
              OFFSET 2.38034 -1.29275 -3.7523
              CHANNELS 3 Zrotation Xrotation Yrotation
              JOINT LeftArm
              {
                OFFSET 16.3182 6.10352e-005 0
                CHANNELS 3 Zrotation Xrotation Yrotation
                JOINT LeftForeArm
                {
                  OFFSET 27.0901 0 0
                  CHANNELS 3 Zrotation Xrotation Yrotation
                  JOINT LeftHand
                  {
                    OFFSET 24.5451 1.52588e-005 0
                    CHANNELS 3 Zrotation Xrotation Yrotation
                    End Site
                    {
                      OFFSET 0 0 0
                    }
                  }
                }
              }
            }
            JOINT Neck
            {
              OFFSET 5.0226 -0.0266342 0
              CHANNELS 3 Zrotation Xrotation Yrotation
              JOINT Head
              {
                OFFSET 6.69363 2.86102e-005 0
                CHANNELS 3 Zrotation Xrotation Yrotation
                End Site
                {
                  OFFSET 0 0 0
                }
              }
            }
          }
        }
      }
    }
  }
}
MOTION
Frames:	15
Frame Time:	0.0416667
-326.001 85.1588 -283.088 86.7979 4.06413 94.4851 -171.2 9.67196 111.785 -71.1523 56.0168 24.2594 94.1421 17.3103 -0.399016 21.4564 2.38818 -13.6363 156.269 52.437 86.1884 -107.287 -0.763412 -2.2496 95.7051 -17.3914 -8.21518 17.5613 3.18269 -12.6494 -4.77683 5.00843 -89.4383 17.0334 -9.12163 2.73937 5.39097 -8.99221 3.141 -17.404 -9.51951 -0.153271 2.60864 -9.51953 -0.153266 114.337 -12.4628 -48.5427 139.784 -24.9308 131.818 -57.2882 29.4158 -48.9724 53.9304 -10.4647 -25.0011 -61.3535 -43.4171 123.949 71.7115 62.6525 -110.96 -75.1597 34.4943 -113.541 -42.6497 -5.50361 10.5148 3.15593 28.2865 9.60071 107.908 17.6 -0.198599 
-322.242 89.1195 -279.65 85.5475 -3.31906 95.757 -164.438 1.40094 114.704 -48.0716 58.2319 16.8697 82.6639 11.0385 2.11859 32.0844 4.63596 -12.3933 163.107 45.1215 94.2136 -102.147 6.31364 -1.02784 94.5883 -14.7503 -8.94574 20.515 3.17032 -12.3235 -4.10669 4.97484 -90.1692 17.0185 -8.17689 1.09187 5.37261 -8.12086 1.45302 -17.3674 -8.12439 -1.43293 2.64528 -8.12439 -1.43293 112.854 -10.5268 -51.2413 126.376 -27.5509 125.473 -60.6438 18.0985 -50.4036 55.8934 -15.6037 -33.5877 -62.0046 -42.4888 123.194 49.361 45.3704 -95.1131 13.4537 -32.7042 -135.965 -6.19466 4.11647 -50.2556 0.985935 29.2702 12.7788 103.954 16.7045 -1.79984 
-318.572 89.9138 -275.939 84.4322 -14.2758 95.6235 -159.757 -7.39733 115.018 -29.36 52.1945 8.49231 73.217 6.54952 2.66573 44.0317 7.5381 -12.2921 167.562 43.28 101.809 -102.395 14.7665 -2.04472 92.6585 -10.0102 -6.09678 23.9559 1.96043 -8.10744 -3.11874 5.08055 -91.0521 16.719 -6.68604 -0.983321 5.06522 -6.72284 -0.686785 -17.5866 -6.0803 -2.9542 2.42601 -6.08031 -2.9542 111.514 -8.2347 -53.5904 111.353 -31.7854 117.321 -61.7357 9.80474 -52.9583 53.3853 -17.019 -37.2829 -62.604 -41.1675 122.62 37.7963 29.7972 -93.5027 31.9262 -41.5247 -127.244 4.53636 -0.728665 -5.28643 -0.136126 27.9475 20.7223 96.4333 9.80514 -6.17767 
-314.166 89.8295 -272.203 81.996 -26.0237 93.798 -159.507 -18.3496 111.065 -12.7291 42.8278 3.77742 59.456 1.31592 3.96308 55.3736 10.0541 -7.69771 176.092 51.8269 102.918 -100.131 20.8298 -3.43105 87.9226 -6.81908 -1.32265 21.7905 -1.73831 1.70696 -2.09271 5.09861 -91.9236 16.6148 -5.10809 -3.01894 4.95094 -5.23596 -2.79087 -17.6095 -3.96534 -4.41468 2.40316 -3.96535 -4.41468 109.952 -4.3251 -55.8169 100.668 -33.6951 110.515 -62.6723 2.67669 -54.1171 58.4642 -22.4337 -42.0634 -63.3434 -37.439 122.49 31.5223 22.2856 -96.3074 28.4382 -37.1828 -127.138 3.07639 -0.23164 -7.26182 1.58853 24.1387 33.3599 79.1539 -3.51941 -18.7638 
-308.679 90.1638 -268.036 77.01 -35.6753 90.0836 -166.266 -22.8157 99.9424 -11.9527 29.0788 8.68936 52.4748 -2.28301 0.976035 41.4875 5.48715 -4.15367 -173.502 61.2915 99.0464 -91.8984 16.5277 -5.0327 85.0122 -7.10701 -0.835013 20.542 -2.45257 3.15974 -1.28937 4.83779 -92.5244 17.1084 -3.83835 -4.42978 5.43612 -4.02943 -4.25679 -17.0587 -2.3318 -5.37636 2.95393 -2.33179 -5.37636 108.304 0.11254 -58.5666 95.8513 -32.8103 106.628 -13.7751 27.77 -68.8156 116.749 -7.69572 -9.57766 -65.2677 -25.2991 123.173 23.7797 22.3949 -102.771 29.2465 -35.3786 -122.986 3.15355 -0.248595 -7.54 8.59273 21.6107 43.0344 43.7526 -7.31284 -38.8369 
-302.476 91.0653 -262.995 72.6447 -41.0416 88.8275 -170.146 -24.095 94.8298 -11.9786 22.2004 12.0771 50.2223 -3.68841 -0.839656 19.9165 -4.1914 1.80157 -170.729 65.2575 99.8842 -80.6692 8.80541 -5.64434 81.9659 -7.20979 -2.47509 20.2338 -2.57977 3.34072 -0.926742 4.71657 -93.2089 17.3199 -3.48168 -5.87488 5.64103 -3.73646 -5.71656 -16.7982 -1.55957 -6.64623 3.21443 -1.55956 -6.64623 106.814 4.39295 -61.5846 93.3512 -31.4309 103.186 95.7097 11.7972 -124.641 54.1174 41.5082 66.1964 -69.2333 -10.3695 120.066 12.2414 24.4462 -107.537 34.6641 -34.1039 -114.855 2.21379 -0.167648 -6.28308 22.0918 25.1494 45.5208 3.94641 6.04807 -44.9187 
-295.935 91.6071 -257.857 71.1495 -42.9318 89.2215 -170.153 -27.154 94.8533 -10.1292 17.6974 10.5518 51.8653 -2.07676 -1.50654 14.8485 -7.68512 4.3686 -172.431 65.0753 101.585 -69.1063 2.776 -4.93737 79.6298 -6.84048 -2.07219 20.5545 -2.87462 4.3121 -1.00816 4.80095 -93.7395 17.1026 -3.9089 -6.87733 5.42021 -4.20712 -6.6996 -16.9811 -1.66839 -7.72899 3.03152 -1.66839 -7.72899 105.838 5.64891 -65.2289 90.8835 -27.7007 101.17 99.5323 3.12182 -124.527 45.2394 36.2828 70.6029 -71.3126 -8.52204 115.507 7.32727 19.383 -102.558 33.4332 -30.1851 -112.794 2.46121 -0.232716 -7.79275 33.6094 28.6682 41.1858 -19.6386 14.6926 -34.1737 
-289.696 91.7802 -252.865 70.7711 -44.1057 88.4575 -170.513 -29.2079 94.598 -11.4839 15.6626 5.46446 50.7425 -0.689228 -0.976323 17.7759 -5.56063 2.58202 -174.731 63.2265 101.956 -58.4627 -3.52471 -3.63714 78.3979 -6.60455 -1.32877 19.502 -2.91429 3.85366 -1.01737 5.10222 -93.7652 16.5005 -3.92422 -6.9445 4.81785 -4.22537 -6.76607 -17.5807 -1.663 -7.79754 2.43191 -1.66299 -7.79755 105.208 2.71492 -69.6016 86.0469 -22.8401 96.2336 101.092 -3.12075 -120.317 41.9187 35.2829 73.6229 -76.3155 -5.45231 100.601 -5.29238 12.5021 -88.6239 38.0752 -26.7623 -110.948 10.7448 -1.03629 -12.1274 37.7136 27.1021 34.9659 -25.7632 13.9772 -23.3624 
-283.642 91.755 -248.017 71.3071 -44.8602 87.756 -170.489 -27.1214 92.3692 -23.3248 17.7385 4.53944 50.1897 -2.18211 -2.06823 13.7067 -3.65692 -4.9772 -177.559 59.8346 102.169 -48.1916 -9.16476 -1.66787 75.1586 -5.68738 -2.18763 21.5192 -2.53459 3.90748 -1.09516 5.45379 -93.5742 15.8087 -3.96295 -6.57459 4.12805 -4.24786 -6.39468 -18.2877 -1.81015 -7.45676 1.72496 -1.81014 -7.45676 104.678 -2.4284 -73.3118 82.2034 -18.9433 90.4129 99.2638 -5.40922 -117.316 41.2206 34.5893 73.4577 -81.5173 -8.35968 86.1003 -1.45326 4.58328 -74.8149 34.5833 -23.9676 -111.366 9.65296 -1.08939 -13.6851 34.1394 25.1028 34.236 -20.1324 12.0788 -20.6303 
-277.584 91.663 -243.104 72.9945 -45.6907 87.8203 -169.246 -23.5745 90.8764 -39.5215 23.6681 3.70587 50.3669 -3.62676 -1.80952 15.098 -1.57114 -8.38705 179.461 55.2934 102.711 -40.694 -7.73031 1.06115 73.7922 -5.10811 -0.31128 22.3086 -2.21647 3.44746 -1.1747 5.97317 -93.2872 14.7868 -3.95202 -6.03199 3.10867 -4.21323 -5.85289 -19.3299 -1.96151 -6.93665 0.682783 -1.96151 -6.93665 103.907 -9.65687 -77.0124 75.994 -16.4104 82.4557 96.9475 -8.51856 -112.58 42.2523 34.6456 72.0554 -82.9405 -11.0724 82.9548 2.52125 8.34614 -71.4553 29.4075 -22.7354 -109.672 1.10846 -0.332247 -11.407 28.7459 22.692 33.8418 -10.5417 9.93758 -18.8802 
-271.541 91.4353 -238.083 75.4935 -46.5658 88.6788 -166.772 -19.5748 90.7755 -55.7437 32.0997 2.26961 50.7004 -4.2757 0.435891 19.8642 -2.73704 -1.86409 176.94 50.1401 103.197 -36.849 -0.0749226 3.84868 73.0018 -4.80793 0.949692 22.5389 -2.15239 3.39236 -1.22896 6.66537 -92.888 13.4289 -3.83452 -5.28932 1.75357 -4.0633 -5.11589 -20.7122 -2.07109 -6.19401 -0.699571 -2.07107 -6.19401 102.69 -17.9439 -80.7479 68.067 -14.7667 71.5292 97.4624 -12.8258 -106.172 42.7503 34.1201 70.4557 -85.3193 -14.5735 78.0215 4.67701 10.7452 -65.594 26.1467 -22.2848 -108.688 1.93211 -0.00499387 -3.96559 29.0487 21.2052 29.8439 -5.19584 9.14674 -16.7518 
-265.532 91.1046 -233.092 78.8394 -46.9179 89.8717 -163.854 -15.6564 91.2263 -71.4937 34.6092 1.35883 48.974 -5.12776 1.46542 18.2292 -2.61709 -3.68825 174.653 45.5032 102.194 -37.8596 9.42274 6.25891 71.0306 -4.01759 3.6408 24.8821 -1.78265 3.61346 -1.34625 7.43114 -92.4151 11.9198 -3.81399 -4.40521 0.247577 -4.00398 -4.23332 -22.2477 -2.31589 -5.34564 -2.23501 -2.31588 -5.34565 100.461 -27.8106 -85.6078 56.4185 -12.4595 59.121 101.606 -18.5938 -96.3148 42.7636 35.3337 72.5308 -87.2664 -20.2329 75.5902 8.38847 14.0734 -59.8057 26.9631 -23.4814 -108.122 1.28454 -0.0401657 -2.88693 31.9361 20.1256 24.4128 -2.53567 9.19826 -13.66 
-259.765 90.6154 -227.896 81.3305 -47.4485 91.3595 -160.429 -10.6486 92.9846 -87.0486 28.7808 1.54728 49.5067 -4.62975 0.742159 9.92837 -0.120239 -14.6874 173.703 40.1327 102.322 -35.8398 -1.09084 6.62271 65.0457 -1.33143 -12.3538 23.5398 -0.968338 0.460786 -1.40262 8.05285 -92.0602 10.6936 -3.74196 -3.75411 -0.976882 -3.90343 -3.58588 -23.4901 -2.44211 -4.70372 -3.47747 -2.44209 -4.70372 97.017 -36.8889 -91.4144 45.1787 -9.79081 46.4106 102.24 -23.7836 -89.2058 48.5927 34.2437 62.9839 -88.6679 -26.8556 75.0187 11.3084 19.3834 -54.1276 28.6223 -24.7868 -106.898 -4.32464 -0.0870107 -4.17202 33.1052 19.2725 21.0362 1.22058 9.13113 -12.5409 
-254.517 90.216 -222.891 81.1746 -49.2822 90.7655 -156.056 -2.51234 93.9058 -101.925 20.3136 2.09543 51.4491 -3.41136 0.415413 0.0495308 2.7419 -23.9813 172.328 40.8001 103.13 -44.9459 -3.76942 6.36705 66.2104 -1.64212 -13.7562 11.1889 -2.10806 -1.61001 -1.23734 8.39721 -91.6913 10.0255 -3.23501 -3.08961 -1.64477 -3.36778 -2.94429 -24.1671 -2.15771 -3.91823 -4.15443 -2.1577 -3.91822 92.3285 -45.4972 -97.962 40.1512 -12.7226 33.3583 52.2611 -22.3002 -112.285 85.3093 26.0859 26.3111 -88.1712 -29.6125 76.8898 6.868 26.4572 -48.2041 27.5266 -24.2944 -105.026 -5.56204 0.0158284 -7.04891 33.8727 18.0458 15.702 4.68698 9.94577 -8.40959 
-249.386 88.9596 -218.795 78.5659 -53.2383 88.3735 -149.589 8.32952 92.2306 -115.971 16.9206 3.76145 52.9144 -3.12906 2.22202 -4.75233 4.52499 -28.0637 172.177 44.1856 104.478 -57.9266 3.0147 4.30229 71.5153 -4.47751 -3.43665 20.7006 -1.16051 -0.23023 -0.810494 8.44627 -91.5262 9.94103 -2.30828 -2.83633 -1.73071 -2.43084 -2.73206 -24.2479 -1.34971 -3.39838 -4.23524 -1.34972 -3.39839 89.0515 -48.8464 -102.37 25.0309 -6.46401 15.5724 -56.1996 26.3216 -111.431 54.5007 -16.4817 -15.0572 -88.0909 -34.5031 78.3568 -1.51079 32.0721 -36.2969 31.5831 -25.2325 -103.172 -10.2729 0.313819 -10.2729 33.5537 18.16 15.5293 7.2201 10.0272 -7.74973 
